<svg width="31" height="34" viewBox="0 0 31 34" fill="none" xmlns="http://www.w3.org/2000/svg">
<path d="M27.7529 24.0436C27.1157 24.0436 26.5075 24.2234 25.9858 24.5563L21.2045 19.8654C21.7758 19.0747 22.0971 18.1167 22.0971 17.102C22.098 16.4583 21.9653 15.8217 21.7072 15.2293L23.9824 13.9092C23.9896 13.9162 23.9959 13.9233 24.0031 13.9304C24.5401 14.4572 25.2539 14.7477 26.0129 14.7477C27.5805 14.7477 28.8557 13.4966 28.8557 11.9586C28.8557 10.4206 27.5805 9.16953 26.0129 9.16953C25.2539 9.16953 24.5401 9.45994 24.0031 9.98677C23.4661 10.5136 23.1701 11.214 23.1701 11.9586C23.1701 12.2366 23.2116 12.5084 23.2911 12.767L21.0069 14.0933C20.2687 13.2017 19.2101 12.5748 18.0053 12.3836L18.0179 7.37833C19.7868 7.06489 21.1332 5.54463 21.1332 3.71979C21.1332 1.66916 19.433 0.0010376 17.3429 0.0010376C16.157 0.0010376 15.0623 0.530517 14.3385 1.45224C14.1102 1.74265 14.1652 2.15968 14.4613 2.38369C14.7573 2.6077 15.1823 2.55281 15.4107 2.26239C15.8763 1.66916 16.5803 1.32828 17.3429 1.32828C18.6866 1.32828 19.7795 2.40052 19.7795 3.7189C19.7795 5.03729 18.6866 6.10953 17.3429 6.10953C16.5613 6.10953 15.8475 5.75536 15.3818 5.13822C15.1598 4.84338 14.7356 4.78052 14.4351 4.99921C14.1346 5.21703 14.0705 5.63317 14.2934 5.92802C14.8692 6.69302 15.7247 7.20744 16.6642 7.37744L16.6516 12.3553C14.7383 12.5757 13.1617 13.887 12.5859 15.6366L5.67295 14.6263C5.53939 13.2088 4.32195 12.0949 2.84279 12.0949C2.08381 12.0949 1.36996 12.3854 0.832984 12.9122C0.296012 13.4381 0 14.1385 0 14.884C0 16.422 1.2752 17.6731 2.84279 17.6731C4.02955 17.6731 5.04844 16.9559 5.47351 15.9403L12.3549 16.9461C12.3531 16.9984 12.3504 17.0506 12.3504 17.1029C12.3504 18.1415 12.6951 19.1526 13.3323 19.9813L5.94731 27.2258C5.33453 26.8079 4.59089 26.5626 3.79039 26.5626C2.60454 26.5626 1.50984 27.0921 0.785153 28.0138C0.556827 28.3051 0.61278 28.7213 0.908792 28.9453C1.2048 29.1693 1.62987 29.1144 1.85819 28.824C2.32387 28.2308 3.0278 27.8908 3.79039 27.8908C5.13418 27.8908 6.22707 28.963 6.22707 30.2814C6.22707 31.5998 5.13418 32.672 3.79039 32.672C3.00885 32.672 2.29499 32.3179 1.82932 31.7007C1.60731 31.4059 1.18314 31.343 0.88262 31.5617C0.582096 31.7795 0.51802 32.1957 0.740932 32.4905C1.45298 33.4361 2.59281 34.0001 3.79039 34.0001C5.88052 34.0001 7.58079 32.332 7.58079 30.2814C7.58079 29.4951 7.3308 28.7665 6.90483 28.1653L14.2907 20.919C14.4901 21.0669 14.7013 21.1997 14.9224 21.3157C15.2518 21.4892 15.6624 21.3679 15.8393 21.0447C16.0162 20.7216 15.8926 20.3187 15.5632 20.1452C14.417 19.5413 13.705 18.3752 13.705 17.1011C13.705 15.1974 15.2834 13.648 17.2246 13.648C19.1649 13.648 20.7443 15.1974 20.7443 17.1011C20.7443 18.4159 19.9997 19.5988 18.8003 20.1894C18.4664 20.3541 18.3311 20.7525 18.4989 21.081C18.5792 21.2386 18.72 21.3582 18.8906 21.414C19.0612 21.4697 19.2471 21.4565 19.4077 21.3777C19.7164 21.2254 20.0079 21.043 20.2768 20.8322L25.0301 25.4957C24.6908 26.0075 24.5076 26.6043 24.5076 27.2294C24.5076 28.986 25.9642 30.4142 27.7547 30.4142C29.5452 30.4142 31.0018 28.9851 31.0018 27.2294C31 25.4718 29.5434 24.0436 27.7529 24.0436ZM24.9606 10.9253C25.2395 10.6499 25.6185 10.4959 26.0138 10.4977C26.8351 10.4977 27.5029 11.1529 27.5029 11.9586C27.5029 12.7643 26.8351 13.4195 26.0138 13.4195C25.6158 13.4195 25.2422 13.2681 24.9606 12.9919C24.6791 12.7156 24.5247 12.3491 24.5247 11.9586C24.5247 11.5681 24.6791 11.2007 24.9606 10.9253ZM2.84279 16.3441C2.02154 16.3441 1.35371 15.6888 1.35371 14.8831C1.35281 14.4953 1.50984 14.1234 1.78961 13.8498C2.06847 13.5754 2.44751 13.4213 2.84279 13.4222C3.66405 13.4222 4.33188 14.0774 4.33188 14.8831C4.33188 15.6897 3.66405 16.3441 2.84279 16.3441ZM27.7529 29.0861C26.7087 29.0861 25.8595 28.2529 25.8595 27.2294C25.8595 26.7326 26.0562 26.2669 26.4136 25.9163C26.771 25.5657 27.2466 25.3726 27.752 25.3726C28.7962 25.3726 29.6445 26.2058 29.6454 27.2303C29.6463 28.2529 28.7971 29.0861 27.7529 29.0861Z" fill="#FBCF32"/>
</svg>
